# xmcd
#
# Track frame offsets:
#	150
#	11379
#	22649
#	31770
#	43369
#	55344
#	63660
#	73412
#	84117
#	94610
#	106472
#	116872
#	127761
#	138914
#	149347
#	160700
#	171792
#	182032
#	192964
#	203776
#	216967
#	228580
#	238620
#	249932
#	260865
#	270066
#	281071
#	291694
#	303812
#	315283
#	326428
#	339265
#	349346
#	361771
#	371516
#
# Disc length: 5110 seconds
#
# Revision: 0
# Processed by: cddbd v1.5.2PL0 Copyright (c) Steve Scherf et al.
# Submitted via: EasyCDDAExtractor 12.0.7.1
#
DISCID=0413f423
DTITLE=George Jones - A Good Year For The Roses (The Complete Musicor Recordin
DTITLE=gs 1965-71 - Part 2) - Disc 1
DYEAR=1967
DGENRE=Country
TTITLE0=Wrong Side of The World
TTITLE1=As Long As I Live
TTITLE2=The Poor Chinee
TTITLE3=New Man In Town
TTITLE4=Beneath Still Waters
TTITLE5=The Green Grass Grows All Around
TTITLE6=Let It Rain Let It Shine
TTITLE7=I'll Sail My Ship Alone
TTITLE8=Possum Holler
TTITLE9=I Can't Go Home
TTITLE10=How Wonderful A Poor Man's Life Can Be
TTITLE11=Unwanted Babies
TTITLE12=Tell Me Something I Don't Know
TTITLE13=Even The Loser (Likes To Dream)
TTITLE14=Between My House And Town
TTITLE15=Mansion hill
TTITLE16=Your Angel Steps Out of Heaven
TTITLE17=On Second thought
TTITLE18=Barbara Joy
TTITLE19=When The Grass Grows Over Me
TTITLE20=Burn Another Honky Tonk Down
TTITLE21=Same Old Boat
TTITLE22=When The Wife Runs Off
TTITLE23=I Don't Have Sense Enough (To Come In Out of The Pain)
TTITLE24=Do What You Think's Best
TTITLE25=Third Time Down
TTITLE26=Our Happy Home
TTITLE27=You've Become My Everything
TTITLE28=My Mom and Santa Claus
TTITLE29=Lonely Christmas Call
TTITLE30=I Cried Myself Awake
TTITLE31=Heartaches and Hangovers
TTITLE32=Divorce of Destroy
TTITLE33=Great Big Spirit of Love
TTITLE34=Milwaukee Here I Come
EXTD=
EXTT0=
EXTT1=
EXTT2=
EXTT3=
EXTT4=
EXTT5=
EXTT6=
EXTT7=
EXTT8=
EXTT9=
EXTT10=
EXTT11=
EXTT12=
EXTT13=
EXTT14=
EXTT15=
EXTT16=
EXTT17=
EXTT18=
EXTT19=
EXTT20=
EXTT21=
EXTT22=
EXTT23=
EXTT24=
EXTT25=
EXTT26=
EXTT27=
EXTT28=
EXTT29=
EXTT30=
EXTT31=
EXTT32=
EXTT33=
EXTT34=
PLAYORDER=
